<svg xmlns="http://www.w3.org/2000/svg" viewBox="0 0 32 32">
  <defs>
    <style>
      .a{fill:none;}
    </style>
  </defs>
  <g transform="translate(-83 -261)">
    <path d="M28.212,23.069A4.485,4.485,0,0,0,25.5,15h-.881A3.984,3.984,0,0,0,22,8h-.369A5.913,5.913,0,0,0,22,6a6,6,0,0,0-6-6,5.818,5.818,0,0,0-.944.094A4.987,4.987,0,0,1,11,8H10a3.984,3.984,0,0,0-2.619,7H6.5a4.485,4.485,0,0,0-2.713,8.069A4.494,4.494,0,0,0,4.5,32h23a4.494,4.494,0,0,0,.712-8.931ZM12,16a2,2,0,1,1-2,2A2,2,0,0,1,12,16Zm9.969,8.688C21.313,26.431,18.313,28,16,28s-5.312-1.569-5.969-3.312A.512.512,0,0,1,10.519,24H21.481A.512.512,0,0,1,21.969,24.688ZM20,20a2,2,0,1,1,2-2A2,2,0,0,1,20,20Z" transform="translate(83 261)"/>
    <rect class="a" width="32" height="32" transform="translate(83 261)"/>
  </g>
</svg>